<svg  width="25" height="25" viewBox="0 0 25 25" fill="none" xmlns="http://www.w3.org/2000/svg"><path d="M12.5 25C19.404 25 25 19.404 25 12.5S19.404 0 12.5 0 0 5.596 0 12.5 5.596 25 12.5 25z" fill="#2E4256"/><path d="M17.03 10.81a4.505 4.505 0 00-4.53-4.529 4.536 4.536 0 00-4.522 4.772l-.007.001c0 1.255 1.045 3.112 1.463 3.809.418.697.767 2.52.767 2.52h4.633s.314-1.823.732-2.52c.418-.697 1.463-2.549 1.463-3.803l-.006-.004c.004-.08.006-.164.006-.246z" fill="#F4C342"/><path d="M17.029 10.81A4.505 4.505 0 0012.5 6.281v11.102h2.334s.314-1.823.732-2.52c.418-.697 1.463-2.549 1.463-3.803l-.007-.004c.005-.08.007-.164.007-.246z" fill="#F89B36"/><path d="M13.916 17.586a.195.195 0 01-.195-.191V15.06c0-.124.037-.268.089-.38l.438-.911h-.524c-.027 0-.082-.003-.096.02l-.37.623a.275.275 0 01-.258.146c-.104-.004-.193-.073-.243-.182l-.258-.558-.255.554c-.05.109-.139.174-.243.178-.104.005-.197-.051-.258-.155l-.37-.605c-.014-.024-.069-.021-.096-.021h-.526l.437.912a.97.97 0 01.091.379v2.334c0 .105-.065.191-.17.191-.106 0-.171-.085-.171-.191V15.06a.804.804 0 00-.078-.253l-.498-1.06c-.047-.101-.048-.203.007-.289a.29.29 0 01.258-.129h.65c.165 0 .344.098.427.24l.273.467.27-.587c.09-.196.123-.27.251-.27s.162.073.253.269l.272.587.274-.466a.518.518 0 01.427-.24h.65c.113 0 .209.043.263.13.055.085.06.19.012.292l-.488 1.059a.74.74 0 00-.05.25v2.334a.194.194 0 01-.195.191z" fill="#EC7C2D"/><path d="M14.374 13.33h-.65a.518.518 0 00-.427.24l-.274.469-.272-.59c-.09-.194-.104-.269-.25-.27v.64l.256.554c.05.108.139.173.242.178.104.005.198-.052.258-.155l.371-.605c.014-.024.069-.021.096-.021h.524l-.438.911a.956.956 0 00-.09.38v2.322h.391V15.06c0-.068.021-.19.05-.252l.49-1.06a.292.292 0 00-.012-.29c-.055-.085-.152-.129-.265-.129z" fill="#D9521E"/><path d="M10.41 17.188c-.383 0-.693.242-.693.625v2.439a2.804 2.804 0 002.783 2.787v-5.852h-2.09z" fill="#BDC3C7"/><path d="M14.59 17.188H12.5v5.85a2.773 2.773 0 002.783-2.787v-2.438c0-.383-.31-.625-.693-.625z" fill="#94A5A6"/><path d="M15.674 18.614v-.523c0-.095-.117-.171-.213-.171H12.5v.879h2.961c.096 0 .213-.09.213-.185z" fill="#BDC3C7"/><path d="M9.539 17.92c-.096 0-.164.076-.164.171v.523c0 .096.068.185.164.185H12.5v-.88H9.539z" fill="#ECF0F1"/><path d="M15.461 20.41c.096 0 .213-.098.213-.193v-.523c0-.096-.117-.163-.213-.163H12.5v.88h2.961z" fill="#BDC3C7"/><path d="M9.375 19.694v.523c0 .095.068.193.164.193H12.5v-.879H9.539a.157.157 0 00-.164.163z" fill="#ECF0F1"/><path d="M12.524 4.54a.514.514 0 01-.512-.523V2.484c0-.288.224-.522.512-.522.289 0 .513.234.513.522v1.533a.514.514 0 01-.513.523z" fill="#F4C342"/><path d="M12.524 4.54a.514.514 0 01-.512-.523V2.484c0-.288.224-.522.512-.522.289 0 .513.234.513.522v1.533a.514.514 0 01-.513.523z" fill="#F4C342"/><path d="M20.687 11.23h-1.533a.514.514 0 01-.523-.512c0-.289.235-.513.523-.513h1.533c.289 0 .522.224.522.513a.514.514 0 01-.522.512z" fill="#F89B36"/><path d="M20.687 11.23h-1.533a.514.514 0 01-.523-.512c0-.289.235-.513.523-.513h1.533c.289 0 .522.224.522.513a.514.514 0 01-.522.512z" fill="#F89B36"/><path d="M5.846 11.23H4.313a.514.514 0 01-.522-.512c0-.289.234-.513.522-.513h1.533c.289 0 .523.224.523.513a.514.514 0 01-.523.512zm1.949-4.741a.52.52 0 01-.37-.154L6.343 5.252a.523.523 0 01.739-.74l1.084 1.084a.523.523 0 01-.37.893z" fill="#F4C342"/><path d="M17.205 6.489a.52.52 0 01-.37-.892l1.084-1.084a.523.523 0 01.74.739l-1.084 1.084a.52.52 0 01-.37.153z" fill="#F89B36"/><path d="M17.205 6.489a.52.52 0 01-.37-.892l1.084-1.084a.523.523 0 01.74.739l-1.084 1.084a.52.52 0 01-.37.153z" fill="#F89B36"/></svg>
